<?xml version="1.0" encoding="UTF-8" standalone="no"?>
<svg
   xmlns:dc="http://purl.org/dc/elements/1.1/"
   xmlns:cc="http://creativecommons.org/ns#"
   xmlns:rdf="http://www.w3.org/1999/02/22-rdf-syntax-ns#"
   xmlns:svg="http://www.w3.org/2000/svg"
   xmlns="http://www.w3.org/2000/svg"
   xmlns:sodipodi="http://sodipodi.sourceforge.net/DTD/sodipodi-0.dtd"
   xmlns:inkscape="http://www.inkscape.org/namespaces/inkscape"
   viewBox="0 0 32 32"
   version="1.1"
   id="svg17"
   sodipodi:docname="list.svg"
   inkscape:version="0.92.3 (2405546, 2018-03-11)">
  <metadata
     id="metadata21">
    <rdf:RDF>
      <cc:Work
         rdf:about="">
        <dc:format>image/svg+xml</dc:format>
        <dc:type
           rdf:resource="http://purl.org/dc/dcmitype/StillImage" />
      </cc:Work>
    </rdf:RDF>
  </metadata>
  <sodipodi:namedview
     pagecolor="#ffffff"
     bordercolor="#666666"
     borderopacity="1"
     objecttolerance="10"
     gridtolerance="10"
     guidetolerance="10"
     inkscape:pageopacity="0"
     inkscape:pageshadow="2"
     inkscape:window-width="1485"
     inkscape:window-height="1273"
     id="namedview19"
     showgrid="false"
     inkscape:zoom="7.375"
     inkscape:cx="16"
     inkscape:cy="16"
     inkscape:window-x="4637"
     inkscape:window-y="432"
     inkscape:window-maximized="0"
     inkscape:current-layer="svg17" />
  <defs
     id="defs4">
    <style
       id="style2">.cls-1{fill:#101820;}</style>
  </defs>
  <title
     id="title6" />
  <g
     data-name="Layer 5"
     id="Layer_5"
     style="fill:#ffffff;fill-opacity:1">
    <path
       class="cls-1"
       d="M16,31A15,15,0,1,1,31,16,15,15,0,0,1,16,31ZM16,3A13,13,0,1,0,29,16,13,13,0,0,0,16,3Z"
       id="path8"
       style="fill:#ffffff;fill-opacity:1" />
    <path
       class="cls-1"
       d="M21,17H11a1,1,0,0,1,0-2H21a1,1,0,0,1,0,2Z"
       id="path10"
       style="fill:#ffffff;fill-opacity:1" />
    <path
       class="cls-1"
       d="M21,12H11a1,1,0,0,1,0-2H21a1,1,0,0,1,0,2Z"
       id="path12"
       style="fill:#ffffff;fill-opacity:1" />
    <path
       class="cls-1"
       d="M21,22H11a1,1,0,0,1,0-2H21a1,1,0,0,1,0,2Z"
       id="path14"
       style="fill:#ffffff;fill-opacity:1" />
  </g>
</svg>
