<?xml version="1.0" encoding="UTF-8" standalone="no"?>
<!-- Created with Inkscape (http://www.inkscape.org/) -->

<svg
   xmlns:dc="http://purl.org/dc/elements/1.1/"
   xmlns:cc="http://creativecommons.org/ns#"
   xmlns:rdf="http://www.w3.org/1999/02/22-rdf-syntax-ns#"
   xmlns:svg="http://www.w3.org/2000/svg"
   xmlns="http://www.w3.org/2000/svg"
   xmlns:sodipodi="http://sodipodi.sourceforge.net/DTD/sodipodi-0.dtd"
   xmlns:inkscape="http://www.inkscape.org/namespaces/inkscape"
   width="311.4147mm"
   height="15.365894mm"
   viewBox="0 0 311.4147 15.365894"
   version="1.1"
   id="svg1381"
   inkscape:version="0.92.3 (2405546, 2018-03-11)"
   sodipodi:docname="logo.svg">
  <defs
     id="defs1375" />
  <sodipodi:namedview
     id="base"
     pagecolor="#ffffff"
     bordercolor="#666666"
     borderopacity="1.0"
     inkscape:pageopacity="0.0"
     inkscape:pageshadow="2"
     inkscape:zoom="0.7"
     inkscape:cx="374.99483"
     inkscape:cy="183.58541"
     inkscape:document-units="mm"
     inkscape:current-layer="layer1"
     showgrid="false"
     fit-margin-top="0"
     fit-margin-left="0"
     fit-margin-right="0"
     fit-margin-bottom="0"
     inkscape:window-width="1920"
     inkscape:window-height="1017"
     inkscape:window-x="-8"
     inkscape:window-y="1540"
     inkscape:window-maximized="1" />
  <metadata
     id="metadata1378">
    <rdf:RDF>
      <cc:Work
         rdf:about="">
        <dc:format>image/svg+xml</dc:format>
        <dc:type
           rdf:resource="http://purl.org/dc/dcmitype/StillImage" />
        <dc:title></dc:title>
      </cc:Work>
    </rdf:RDF>
  </metadata>
  <g
     inkscape:label="Layer 1"
     inkscape:groupmode="layer"
     id="layer1"
     transform="translate(159.29813,-161.75008)">
    <path
       style="fill:#f26894;fill-opacity:1;stroke:none;stroke-width:0.26458332;stroke-opacity:1"
       d="m -158.83511,176.81978 c -0.41099,-0.23938 -0.46302,-0.75411 -0.46302,-4.58115 0,-3.84086 0.0528,-4.35927 0.48386,-4.74935 0.42435,-0.38404 1.33753,-0.43789 7.42572,-0.43789 4.27924,0 7.13817,0.10506 7.45365,0.27389 0.43039,0.23034 0.51177,0.56546 0.51177,2.10736 0,1.54191 -0.0814,1.87702 -0.51177,2.10736 -0.29706,0.15898 -2.46164,0.27389 -5.15938,0.27389 h -4.6476 v 2.0578 c 0,2.91695 -0.26989,3.23621 -2.72698,3.22582 -1.04678,-0.004 -2.11159,-0.1294 -2.36625,-0.27773 z m 3.77031,-3.2672 c 0,-3.16955 -0.19593,-3.0616 5.55732,-3.0616 4.4934,0 4.73403,-0.026 4.89373,-0.52917 0.0924,-0.29104 0.0917,-0.76935 -10e-4,-1.06291 -0.16468,-0.51885 -0.35163,-0.53178 -6.69856,-0.46302 l -6.52928,0.0707 -0.0736,3.63802 -0.0736,3.63802 h 1.46268 1.46267 z m 17.62665,3.16094 c -1.55122,-0.4378 -2.97901,-1.73546 -3.34026,-3.03581 -0.14329,-0.51578 -0.26118,-3.22122 -0.26199,-6.0121 -0.002,-6.08128 -0.0842,-5.90588 2.77665,-5.90588 2.81803,0 2.77812,-0.0737 2.77812,5.1277 0,3.29275 0.0877,4.41611 0.37555,4.80975 0.33751,0.46158 0.71478,0.51359 3.72549,0.51359 3.01072,0 3.38798,-0.052 3.7255,-0.51359 0.28764,-0.39338 0.37554,-1.51399 0.37554,-4.78764 0,-5.17092 -0.0117,-5.14981 2.84621,-5.14981 2.78236,0 2.71034,-0.15705 2.70857,5.90588 -7.9e-4,2.85832 -0.12795,5.52984 -0.29107,6.11739 -0.34546,1.24429 -1.4998,2.39635 -2.83713,2.83153 -1.4808,0.48186 -10.96034,0.55645 -12.58118,0.099 z m 12.72981,-1.53439 c 1.53704,-0.83333 1.67832,-1.45238 1.59782,-7.00142 l -0.072,-4.96278 h -1.32291 -1.32292 l -0.13596,4.23334 c -0.15123,4.7088 -0.2809,5.11399 -1.86545,5.82852 -0.76579,0.34532 -1.60795,0.41776 -4.03075,0.34671 -2.96809,-0.087 -3.08755,-0.11364 -3.86688,-0.86098 l -0.80418,-0.77117 -0.0723,-4.38821 -0.0724,-4.38821 h -1.5875 -1.5875 l 0.002,4.8948 c 0.003,7.63589 0.0492,7.67407 9.12602,7.58424 4.34954,-0.043 5.29364,-0.12387 6.01479,-0.51484 z m 5.77807,1.51066 c -0.3476,-0.3476 -0.41554,-1.20445 -0.4143,-5.22553 8e-4,-2.6914 0.13024,-5.27586 0.29385,-5.86807 0.39036,-1.41299 1.93718,-2.85471 3.57184,-3.32914 2.01396,-0.5845 11.17173,-0.51361 12.95387,0.10028 1.44889,0.49911 2.821245,1.72222 3.271075,2.91535 0.40726,1.08024 0.37533,11.09336 -0.0367,11.50538 -0.19217,0.19217 -1.124685,0.3175 -2.362345,0.3175 -2.9238,0 -2.87641,0.0827 -2.87641,-5.01667 0,-5.65644 0.18787,-5.43437 -4.59737,-5.43437 -3.08734,0 -3.65149,0.0656 -4.05828,0.47176 -0.40476,0.40415 -0.49143,1.11661 -0.60477,4.97127 -0.1061,3.60886 -0.21084,4.54903 -0.52915,4.74971 -0.68703,0.43312 -4.1386,0.31525 -4.61132,-0.15747 z m 3.81756,-5.14048 c 0.19528,-6.05371 0.35322,-6.21771 5.98823,-6.21771 3.40628,0 3.83328,0.0525 4.50955,0.55467 1.26524,0.93948 1.40036,1.50333 1.40457,5.86148 l 0.004,4.03489 h 1.4552 1.45521 V 171.007 c 0,-5.01991 -0.12004,-5.64514 -1.2865,-6.70078 -0.91976,-0.83237 -3.30726,-1.21531 -7.57704,-1.21531 -4.26978,0 -6.65728,0.38294 -7.57704,1.21531 -1.16697,1.0561 -1.2865,1.67996 -1.2865,6.71461 v 4.78947 l 1.38906,-0.08 1.38906,-0.08 z m 21.695835,5.37092 c -1.56596,-0.56642 -2.13763,-1.01383 -2.65135,-2.07502 -0.51419,-1.06218 -0.55152,-1.51645 -0.47471,-5.77779 0.076,-4.21529 0.13267,-4.69105 0.64017,-5.37102 1.22478,-1.64099 1.74407,-1.76091 8.17359,-1.8876 4.146924,-0.0817 6.032614,-0.0256 6.438414,0.19158 0.497139,0.26606 0.573889,0.53389 0.573889,2.00261 0,2.46341 -0.12128,2.51924 -5.47352,2.51924 -3.977963,0 -4.317813,0.038 -4.571343,0.51177 -0.38513,0.71962 -0.35126,4.5967 0.0436,4.99156 0.21936,0.21936 1.58923,0.31871 4.431772,0.3214 5.257832,0.005 5.408912,0.0701 5.517502,2.37719 0.0649,1.37925 -0.008,1.77104 -0.381302,2.04387 -0.342709,0.2506 -1.930889,0.33216 -6.165732,0.31665 -3.13726,-0.0115 -5.88271,-0.0855 -6.10099,-0.16444 z m 11.326913,-2.12977 -0.0821,-0.99219 -4.555473,-0.13229 c -5.6718,-0.16471 -5.46247,-0.0251 -5.59015,-3.72949 -0.0957,-2.77537 0.17743,-4.00053 0.97558,-4.37691 0.24134,-0.11381 2.40332,-0.27119 4.804413,-0.34974 l 4.36563,-0.14282 0.0821,-0.99219 0.0821,-0.99219 -5.109203,0.002 c -5.40632,0.002 -6.70527,0.18925 -7.51693,1.08612 -0.45426,0.50195 -0.50269,1.00953 -0.50269,5.26887 0,4.59692 0.0155,4.72993 0.62819,5.38208 0.34551,0.36778 0.88129,0.71834 1.19063,0.77904 0.30934,0.0607 2.98063,0.12657 5.93622,0.14638 l 5.373783,0.0359 z m 9.244442,2.02932 c -0.411171,-0.23948 -0.463021,-0.75535 -0.463021,-4.60716 0,-5.1128 0.02609,-5.16123 2.77813,-5.16123 2.73902,0 2.77812,0.0704 2.77812,5.00108 0,5.05235 -0.003,5.05733 -2.798961,5.04504 -1.007179,-0.004 -2.03961,-0.1294 -2.294268,-0.27773 z m 3.638018,-4.7413 v -3.57188 h -1.322909 -1.322919 l -0.0737,3.65211 -0.0737,3.65211 1.396621,-0.0802 1.396619,-0.0802 z m 9.518012,4.39208 c -0.356251,-0.5437 -0.40468,-1.593 -0.33683,-7.29773 0.0924,-7.76755 -0.0442,-7.4131 2.857358,-7.4131 2.90161,0 2.76499,-0.35445 2.85737,7.4131 0.0979,8.2315 0.20551,7.93273 -2.85737,7.93273 -1.92942,0 -2.13907,-0.0528 -2.520528,-0.635 z m 3.816108,-0.78726 c 0.21169,-0.25507 0.28073,-2.17415 0.23083,-6.41615 l -0.0712,-6.05222 h -1.45521 -1.45521 l -0.0712,6.05222 c -0.0499,4.242 0.0191,6.16108 0.23084,6.41615 0.16611,0.20016 0.74912,0.36393 1.29557,0.36393 0.54644,0 1.12945,-0.16377 1.29557,-0.36393 z m 8.89088,1.23919 c -2.97303,-0.68364 -4.09692,-1.51722 -4.76743,-3.53595 -0.64776,-1.95021 -0.47159,-7.11955 0.29253,-8.58411 0.61666,-1.1819 1.81498,-2.10774 3.25315,-2.51341 1.53593,-0.43325 7.86906,-0.6162 10.57313,-0.30544 3.14754,0.36173 4.48656,1.07968 5.37373,2.88126 0.55613,1.12934 0.62006,1.61845 0.6143,4.70009 -0.006,3.02792 -0.0762,3.5715 -0.58932,4.54179 -1.27067,2.40268 -3.26463,3.01204 -9.71245,2.96815 -2.47966,-0.0169 -4.7466,-0.0855 -5.03764,-0.15238 z m 12.01089,-1.80131 c 1.81229,-1.06747 2.01203,-1.6144 2.01203,-5.50938 0,-4.19516 -0.28034,-4.93684 -2.2016,-5.82474 -1.14159,-0.52758 -1.6603,-0.57213 -6.66194,-0.57213 -4.99712,0 -5.52111,0.0449 -6.65842,0.57057 -1.99714,0.92308 -2.20512,1.4557 -2.20512,5.64714 0,3.90194 0.18533,4.52956 1.61395,5.46563 1.11041,0.72757 2.34398,0.85246 7.91105,0.801 4.76353,-0.044 5.38132,-0.10173 6.19005,-0.57809 z m -10.99873,-1.84126 c -1.35985,-0.59151 -1.79976,-1.53101 -1.7935,-3.83033 0.01,-3.52811 0.86057,-4.11799 5.94072,-4.11799 5.10109,0 5.82083,0.5309 5.82083,4.29362 0,3.49177 -0.80917,4.04656 -5.87848,4.0304 -2.16114,-0.007 -3.53099,-0.13274 -4.08957,-0.3757 z m 8.12075,-1.4167 c 0.43064,-0.34871 0.62853,-0.85401 0.72414,-1.84902 0.15767,-1.64085 -0.25583,-2.78286 -1.15613,-3.19307 -0.85832,-0.39107 -6.23252,-0.38754 -7.09332,0.005 -0.84684,0.38585 -1.31448,1.7677 -1.13553,3.35539 0.22036,1.95499 0.66892,2.16188 4.68731,2.16188 2.87088,0 3.47036,-0.0724 3.97353,-0.47984 z m 8.77938,4.92484 c -0.41202,-0.41202 -0.44395,-10.42514 -0.0367,-11.50538 0.44932,-1.19177 1.82127,-2.4157 3.27107,-2.91817 1.11028,-0.38479 2.25959,-0.46445 6.63458,-0.45983 5.65738,0.006 6.68582,0.17471 8.26851,1.35668 1.6367098,1.22231 1.7694898,1.76513 1.8715898,7.65081 0.11082,6.38842 0.19685,6.19339 -2.7317598,6.19339 -2.81095,0 -2.77813,0.0593 -2.77813,-5.01667 0,-5.60466 0.15977,-5.40481 -4.41306,-5.52033 -3.15114,-0.0796 -3.45609,-0.044 -4.12502,0.48222 l -0.72234,0.56819 v 4.15525 c 0,5.30891 -0.0121,5.33134 -2.8725,5.33134 -1.24069,0 -2.17397,-0.12523 -2.36625,-0.3175 z m 3.91584,-5.23875 c 0.19507,-6.04714 0.35837,-6.21771 5.95312,-6.21771 5.63681,0 5.95313,0.35101 5.95313,6.60609 v 3.84495 h 1.45521 1.45521 l -10e-4,-4.82864 c -7.9e-4,-4.3194 -0.0554,-4.91782 -0.51654,-5.67417 -1.12695,-1.84826 -3.06921,-2.2923 -9.43469,-2.15696 -3.96748,0.0843 -4.6015,0.16082 -5.66398,0.68321 -2.00965,0.98808 -2.22449,1.6098 -2.33431,6.75508 -0.0521,2.4397 -0.0245,4.61886 0.0614,4.84258 0.11893,0.30992 0.48751,0.3877 1.54811,0.32669 l 1.39209,-0.0801 z m 18.0445798,5.23875 c -0.17462,-0.17463 -0.3175,-0.46225 -0.3175,-0.63916 0,-0.46425 6.85711998,-13.08509 7.49443998,-13.79386 0.48536,-0.53977 0.7751,-0.59531 3.10570002,-0.59531 2.0656203,0 2.6766003,0.0909 3.1111503,0.46302 0.60459,0.51768 7.7199599,13.31498 7.7199599,13.88467 0,0.78009 -0.64443,0.99814 -2.94987,0.99814 -2.3048699,0 -2.3176099,-0.004 -2.9504999,-0.8599 -0.34959,-0.47294 -1.49619,-2.46724 -2.54799,-4.43177 -1.0518,-1.96453 -2.01184,-3.67485 -2.13344,-3.80071 -0.2673903,-0.27677 -0.9682103,0.821 -3.16855032,4.96326 -0.91939,1.73081 -1.89261998,3.36792 -2.16271998,3.63802 -0.39951,0.39952 -0.90062,0.4911 -2.68714,0.4911 -1.35525,0 -2.3176,-0.12156 -2.51354,-0.3175 z m 7.09029998,-5.90021 c 2.79278002,-5.16323 3.19937002,-5.57179 4.16169032,-4.18186 0.28265,0.40826 1.44056,2.46868 2.57313,4.57874 1.13257,2.11005 2.17885,3.98528 2.32507,4.16718 0.28533,0.35496 3.3829699,0.47668 3.3666699,0.1323 -0.005,-0.10914 -1.53258,-2.93688 -3.3942399,-6.28386 l -3.38485,-6.08542 -2.2692103,-0.0761 c -2.22143,-0.0745 -2.27994,-0.0605 -2.77900002,0.66146 -0.63734,0.92206 -6.41955998,11.57115 -6.41955998,11.82287 0,0.10159 0.72996,0.14927 1.62214,0.10594 l 1.62214,-0.0788 z m 18.97579022,5.9289 c -2.23184,-0.52554 -3.45415,-1.60386 -3.8714,-3.41536 -0.40283,-1.74884 -0.36143,-10.02381 0.0543,-10.84791 0.30294,-0.60057 0.50924,-0.66861 2.24095,-0.73912 3.0266,-0.12322 2.92476,-0.29048 3.02256,4.96368 0.0723,3.88286 0.14726,4.5529 0.55507,4.96095 0.40225,0.40248 1.11469,0.49121 4.85012,0.60407 3.94171,0.11909 4.41607,0.18354 4.75401,0.64588 0.50035,0.68452 0.47855,2.79329 -0.0365,3.52858 -0.40248,0.57462 -0.52775,0.58743 -5.49011,0.56146 -2.79302,-0.0146 -5.52858,-0.13262 -6.07901,-0.26223 z m 10.56262,-1.43157 c 0.0839,-0.21861 0.0779,-0.69486 -0.0133,-1.05834 l -0.16587,-0.66086 h -3.70762 c -6.15747,0 -6.42464,-0.26125 -6.5629,-6.41717 l -0.0942,-4.19188 -1.36106,0.079 -1.36106,0.079 -0.0801,4.63021 c -0.0933,5.39068 0.10037,6.40472 1.34704,7.05418 1.39928,0.72897 2.22473,0.82793 7.14189,0.85624 3.95809,0.0228 4.72887,-0.036 4.85718,-0.37038 z m 12.68383,1.30637 c -0.33624,-0.33624 -0.42265,-0.82568 -0.36322,-2.05747 0.10679,-2.21357 0.27737,-2.2822 5.68475,-2.28712 2.76695,-0.003 4.34614,-0.10466 4.45974,-0.28846 0.32727,-0.52954 0.21425,-4.70696 -0.13886,-5.13243 -0.27518,-0.33157 -1.10008,-0.40384 -4.60952,-0.40384 -5.26102,0 -5.45043,-0.0819 -5.45043,-2.35525 0,-2.39625 0.0359,-2.41095 5.84167,-2.38794 7.33034,0.029 8.40267,0.29496 9.63646,2.38959 0.47148,0.80047 0.52916,1.37424 0.52916,5.26401 0,5.08011 -0.2887,6.02648 -2.13374,6.99439 -0.94727,0.49693 -1.58163,0.55343 -7.02804,0.62598 -5.30366,0.0706 -6.03711,0.0294 -6.42797,-0.36146 z m 12.34818,-1.18729 c 1.66599,-0.46266 1.91344,-1.25275 1.91626,-6.11839 0.002,-3.79891 -0.0442,-4.21064 -0.55204,-4.89479 -0.91661,-1.23493 -2.00535,-1.42752 -7.61938,-1.34787 l -5.05535,0.0717 v 0.92605 0.92604 l 4.49792,0.15495 c 2.47385,0.0852 4.52304,0.17452 4.55375,0.19843 1.0039,0.78187 1.13479,1.24701 1.13479,4.03282 0,4.1749 0.17074,4.04642 -5.59832,4.21276 -4.5549,0.13133 -4.58877,0.13674 -4.67521,0.74684 -0.19321,1.36375 -0.16923,1.36993 5.30429,1.36835 2.80584,-7.9e-4 5.54782,-0.12542 6.09329,-0.27691 z m 6.21813,1.31552 c -0.42245,-0.24605 -0.46302,-0.88116 -0.46302,-7.24909 0,-6.09738 0.0545,-7.0339 0.4311,-7.41051 0.38152,-0.38152 1.26174,-0.42173 7.65413,-0.34963 8.25136,0.0931 8.16651,0.0709 9.35523,2.44358 0.89916,1.79473 0.91906,5.30988 0.0404,7.12504 -0.32949,0.68059 -0.79582,1.3505 -1.0363,1.48868 -1.28754,0.73982 -1.28706,0.71846 -0.0445,1.98451 1.61729,1.64791 1.3526,2.09066 -1.3149,2.19934 -2.19726,0.0895 -2.76505,-0.18213 -5.22939,-2.50196 -1.37646,-1.29574 -1.38906,-1.32203 -1.38906,-2.8972 0,-2.0667 0.2908,-2.40232 2.20716,-2.54736 1.60438,-0.12143 2.01481,-0.41088 2.02212,-1.42608 0.007,-1.02188 -0.54447,-1.17864 -3.86993,-1.09937 l -3.13748,0.0748 -0.0725,4.74865 c -0.0881,5.77046 -0.0563,5.70616 -2.81281,5.69434 -1.03247,-0.004 -2.08558,-0.1294 -2.34025,-0.27773 z m 3.77032,-6.14055 c 0.10703,-4.0221 0.20805,-5.02092 0.52916,-5.23194 0.2292,-0.15061 2.05588,-0.23015 4.32346,-0.18825 3.76509,0.0696 3.94736,0.0983 4.43177,0.69718 0.69524,0.85962 0.67346,2.66197 -0.0432,3.57303 -0.44211,0.56206 -0.77116,0.69714 -1.69815,0.69714 -1.76659,0 -1.98681,0.16261 -1.98681,1.46695 0,1.08514 0.0918,1.2236 1.73485,2.61753 1.37335,1.16509 1.92467,1.47177 2.64583,1.47177 0.50104,0 0.91098,-0.0929 0.91098,-0.20636 0,-0.1135 -0.41672,-0.59942 -0.92604,-1.07983 -0.50932,-0.48041 -0.92422,-0.95309 -0.92199,-1.05041 0.0105,-0.45794 0.5071,-0.85914 1.46391,-1.18264 1.51294,-0.51152 2.05073,-1.71997 2.03758,-4.57853 -0.008,-1.68232 -0.13062,-2.41512 -0.51556,-3.07421 -0.86413,-1.4796 -1.15893,-1.53158 -8.28165,-1.46046 l -6.48229,0.0647 -0.071,6.29785 -0.071,6.29785 1.39388,-0.0801 1.39388,-0.0801 z m 18.65312,6.02868 c -2.15291,-0.76167 -2.87901,-2.46598 -2.73579,-6.42141 0.0757,-2.09096 0.17132,-2.54402 0.60354,-2.85984 0.4123,-0.30125 1.87489,-0.37527 7.41561,-0.37527 8.20346,0 8.0781,-0.0366 8.0781,2.35525 0,2.37319 -0.078,2.40725 -5.51093,2.40725 -2.85244,0 -4.54324,0.0985 -4.54324,0.26459 0,0.16537 1.61216,0.26604 4.29948,0.26848 5.4247,0.005 5.59353,0.0727 5.70037,2.28712 0.12192,2.52736 0.26429,2.47359 -6.51301,2.45987 -4.24574,-0.009 -6.01072,-0.10889 -6.79413,-0.38604 z m 11.90625,-1.9836 v -0.92604 l -4.53723,-0.13229 c -3.97793,-0.11599 -4.60579,-0.19443 -5.09323,-0.63632 -0.61373,-0.55637 -0.74713,-1.85459 -0.22527,-2.19234 0.1819,-0.11773 2.47386,-0.27358 5.09323,-0.34634 l 4.7625,-0.1323 v -0.92604 -0.92604 l -6.46369,-0.071 c -4.99462,-0.0548 -6.51211,0.005 -6.67668,0.26459 -0.32187,0.50709 -0.23445,4.17754 0.12456,5.23033 0.57439,1.68432 1.3512,1.86731 7.59185,1.78839 l 5.42396,-0.0686 z m 3.09563,2.06375 c -0.17463,-0.17463 -0.3175,-0.42595 -0.3175,-0.5585 0,-0.33852 7.125672,-13.44226 7.616752,-14.00681 0.33662,-0.38698 0.86727,-0.46302 3.23117,-0.46302 2.36505,0 2.89388,0.0759 3.2281,0.46302 0.21984,0.25466 1.96989,3.37816 3.88905,6.9411 2.35391,4.37008 3.46408,6.6947 3.41161,7.14375 -0.0749,0.64159 -0.15428,0.66851 -2.1935,0.74412 -1.16369,0.0432 -2.36014,0.0171 -2.6588,-0.0578 -0.37462,-0.094 -1.31793,-1.53389 -3.04187,-4.64309 -1.37436,-2.47874 -2.60626,-4.471 -2.73752,-4.42724 -0.13126,0.0437 -1.23301,1.90948 -2.44834,4.14607 -1.21532,2.23658 -2.40708,4.28463 -2.64833,4.55122 -0.36081,0.3987 -0.8446,0.48472 -2.726,0.48472 -1.426262,0 -2.406842,-0.11952 -2.604822,-0.3175 z m 4.911912,-1.76048 c 0.25251,-0.41529 1.46846,-2.62324 2.70208,-4.90656 2.94453,-5.44999 2.70963,-5.46836 5.9929,0.46854 1.35786,2.45532 2.60491,4.62821 2.77128,4.82865 0.39701,0.47837 3.15172,0.50794 3.13966,0.0337 -0.005,-0.1819 -1.47371,-3.00963 -3.26459,-6.28385 l -3.25614,-5.95313 h -2.46092 -2.46089 l -3.26192,5.95313 c -1.79406,3.27422 -3.265692,6.10195 -3.270352,6.28385 -0.006,0.22563 0.455272,0.33073 1.450662,0.33073 1.32095,0 1.50256,-0.0715 1.91823,-0.75506 z m 18.3185,1.819 c -0.32981,-0.20848 -0.39688,-1.09106 -0.39688,-5.22147 0,-5.75375 0.13703,-6.64062 1.21603,-7.8695 1.24031,-1.41264 2.85504,-1.81823 7.25064,-1.82119 2.03729,-10e-4 5.19245,-0.002 7.01146,-0.002 1.81901,0 4.97416,0.001 7.01145,0.002 4.2055,0.003 5.91995,0.40001 7.11611,1.64854 1.20351,1.25617 1.48285,2.76134 1.48285,7.9895 0,5.65955 0.0635,5.5331 -2.77812,5.5331 -2.80527,0 -2.77813,0.0482 -2.77813,-4.93108 0,-2.25475 -0.11655,-4.31732 -0.259,-4.58348 -0.70966,-1.32602 -5.86166,-1.47441 -6.67686,-0.19233 -0.10989,0.1728 -0.20162,2.24044 -0.20384,4.59476 -0.005,5.20707 0.0486,5.11213 -2.88044,5.11213 -1.23767,0 -2.17019,-0.12533 -2.36236,-0.3175 -0.21709,-0.21708 -0.3175,-1.50371 -0.3175,-4.06797 0,-4.86329 -0.10496,-5.36442 -1.22115,-5.8308 -0.48319,-0.20188 -1.60055,-0.36706 -2.48301,-0.36706 -0.88247,0 -1.99983,0.16518 -2.48301,0.36706 -1.1162,0.46638 -1.22116,0.96751 -1.22116,5.8308 0,2.56426 -0.10041,3.85089 -0.3175,4.06797 -0.38071,0.3807 -4.12628,0.42724 -4.70958,0.0585 z m 3.96875,-5.42956 c 0.081,-2.59245 0.25656,-4.45002 0.45291,-4.79236 0.17635,-0.30746 0.71213,-0.72418 1.19063,-0.92604 1.1463,-0.48358 5.09307,-0.48296 6.2403,0.001 1.39761,0.58956 1.64068,1.38369 1.64478,5.37355 0.005,4.76999 0,4.75398 1.68418,4.65599 l 1.3549,-0.0789 0.1323,-4.32199 0.13229,-4.322 0.83997,-0.74971 c 1.86455,-1.66415 7.29279,-1.2742 8.33877,0.59904 0.21148,0.37877 0.36761,2.10077 0.43272,4.77262 l 0.10184,4.18005 1.36105,-0.079 1.36106,-0.079 0.0798,-3.96875 c 0.0439,-2.18281 0.006,-4.48232 -0.0848,-5.11002 -0.23129,-1.60222 -1.23076,-2.62174 -3.0377,-3.09861 -1.87643,-0.49521 -7.53999,-0.50671 -9.61062,-0.0195 -1.32588,0.31196 -1.74911,0.30816 -3.03353,-0.0273 -1.77959,-0.46472 -8.56639,-0.35307 -10.20863,0.16793 -1.31789,0.4181 -2.17138,1.35103 -2.37765,2.59893 -0.22736,1.37538 -0.21183,9.19456 0.0188,9.42509 0.10356,0.10355 0.78817,0.15316 1.52136,0.11024 l 1.33299,-0.078 z m -284.14815,-5.40961 c -0.90208,-0.90208 -0.049,-2.73563 1.70481,-3.66405 1.02702,-0.54368 12.13631,-0.83347 13.05724,-0.3406 0.4917,0.26315 0.56943,0.53567 0.56943,1.99634 0,2.63472 0.34605,2.52313 -7.82411,2.52313 -6.57479,0 -7.02331,-0.0308 -7.50737,-0.51482 z m 14.14086,-1.33727 c 0.0924,-0.29104 0.0897,-0.77565 -0.006,-1.0769 -0.1698,-0.53497 -0.30553,-0.54577 -5.82001,-0.46302 -5.25575,0.0789 -5.69775,0.12324 -6.39242,0.64192 -0.41044,0.30647 -0.78476,0.75295 -0.83181,0.99219 -0.0775,0.39408 0.52414,0.43498 6.39832,0.43498 6.25149,0 6.48988,-0.019 6.65181,-0.52917 z m 65.543248,1.44021 c -0.492498,-0.34496 -0.588039,-0.66071 -0.588039,-1.94337 0,-2.50813 -0.385541,-2.40725 9.200099,-2.40725 8.20719,0 8.233662,0.002 8.644271,0.58804 0.60964,0.87037 0.541549,2.98645 -0.11729,3.64529 -0.505859,0.50586 -0.881941,0.52917 -8.54008,0.52917 -6.822289,0 -8.098171,-0.0611 -8.598961,-0.41188 z m 16.236492,-1.57191 c 0.375888,-1.49765 0.529069,-1.47013 -7.755811,-1.39372 l -7.613509,0.0702 -0.0871,0.61456 c -0.198379,1.40019 -0.370139,1.36982 7.74664,1.36982 h 7.54389 z m 143.975988,1.69801 c -1.11165,-0.64747 -0.15518,-2.99656 1.55625,-3.82215 0.87874,-0.42389 1.85722,-0.50956 6.92063,-0.6059 6.99664,-0.13312 6.9351,-0.15405 6.9351,2.35858 0,2.39292 0.12419,2.35677 -8.06252,2.3472 -4.1833,-0.005 -7.06818,-0.11391 -7.34946,-0.27773 z m 13.95677,-2.09547 v -0.92605 l -5.24076,-0.0718 c -4.72887,-0.0648 -5.35554,-0.021 -6.41615,0.44814 -0.84584,0.37416 -1.17538,0.67378 -1.17538,1.06868 0,0.54214 0.0773,0.54789 6.41614,0.4779 l 6.41615,-0.0708 z"
       id="path1364"
       inkscape:connector-curvature="0" />
  </g>
</svg>
