<?xml version="1.0" encoding="UTF-8" standalone="no"?>
<svg
   xmlns:dc="http://purl.org/dc/elements/1.1/"
   xmlns:cc="http://creativecommons.org/ns#"
   xmlns:rdf="http://www.w3.org/1999/02/22-rdf-syntax-ns#"
   xmlns:svg="http://www.w3.org/2000/svg"
   xmlns="http://www.w3.org/2000/svg"
   xmlns:sodipodi="http://sodipodi.sourceforge.net/DTD/sodipodi-0.dtd"
   xmlns:inkscape="http://www.inkscape.org/namespaces/inkscape"
   viewBox="0 0 32 32"
   version="1.1"
   id="svg868"
   sodipodi:docname="organizations.svg"
   inkscape:version="0.92.3 (2405546, 2018-03-11)">
  <metadata
     id="metadata872">
    <rdf:RDF>
      <cc:Work
         rdf:about="">
        <dc:format>image/svg+xml</dc:format>
        <dc:type
           rdf:resource="http://purl.org/dc/dcmitype/StillImage" />
      </cc:Work>
    </rdf:RDF>
  </metadata>
  <sodipodi:namedview
     pagecolor="#ffffff"
     bordercolor="#666666"
     borderopacity="1"
     objecttolerance="10"
     gridtolerance="10"
     guidetolerance="10"
     inkscape:pageopacity="0"
     inkscape:pageshadow="2"
     inkscape:window-width="3840"
     inkscape:window-height="2097"
     id="namedview870"
     showgrid="false"
     inkscape:zoom="29.5"
     inkscape:cx="16.420343"
     inkscape:cy="6.7941864"
     inkscape:window-x="2953"
     inkscape:window-y="-8"
     inkscape:window-maximized="1"
     inkscape:current-layer="svg868" />
  <defs
     id="defs851">
    <style
       id="style849">.cls-1{fill:#101820;}</style>
  </defs>
  <title
     id="title853" />
  <rect
     style="fill:none;fill-opacity:1;stroke:#ffffff;stroke-width:0.49630296;stroke-miterlimit:4;stroke-dasharray:none;stroke-opacity:1"
     id="rect1461"
     width="14.807491"
     height="14.807491"
     x="0.62940389"
     y="0.62940568"
     ry="1.8588127"
     rx="1.8588127" />
  <g
     data-name="Layer 20"
     id="Layer_20"
     style="fill:#ffffff;fill-opacity:1;stroke:#ffffff;stroke-opacity:1"
     transform="matrix(0.42479647,0,0,0.42479647,1.2364037,1.2364049)">
    <path
       class="cls-1"
       d="m 16,22 a 6,6 0 1 1 6,-6 6,6 0 0 1 -6,6 z m 0,-10 a 4,4 0 1 0 4,4 4,4 0 0 0 -4,-4 z"
       id="path855"
       style="fill:#ffffff;fill-opacity:1;stroke:#ffffff;stroke-opacity:1"
       inkscape:connector-curvature="0" />
    <path
       class="cls-1"
       d="M 21,31 H 11 A 4,4 0 0 1 7,27 v -2.55 a 1,1 0 0 1 0.63,-0.92 l 3.64,-1.46 A 1,1 0 1 1 12,23.93 l -3,1.2 V 27 a 2,2 0 0 0 2,2 h 10 a 2,2 0 0 0 2,-2 v -1.87 l -3,-1.2 a 1.0008996,1.0008996 0 0 1 0.74,-1.86 l 3.64,1.46 a 1,1 0 0 1 0.63,0.92 V 27 A 4,4 0 0 1 21,31 Z"
       id="path857"
       style="fill:#ffffff;fill-opacity:1;stroke:#ffffff;stroke-opacity:1"
       inkscape:connector-curvature="0" />
    <path
       class="cls-1"
       d="M 9,11 A 5,5 0 1 1 14,6 5,5 0 0 1 9,11 Z M 9,3 A 3,3 0 1 0 12,6 3,3 0 0 0 9,3 Z"
       id="path859"
       style="fill:#ffffff;fill-opacity:1;stroke:#ffffff;stroke-opacity:1"
       inkscape:connector-curvature="0" />
    <path
       class="cls-1"
       d="M 8,19.39 H 5 a 4,4 0 0 1 -4,-4 V 13.64 A 1,1 0 0 1 1.63,12.71 L 4.82,11.46 A 1,1 0 0 1 6.11,12 1,1 0 0 1 5.55,13.3 L 3,14.32 v 1.07 a 2,2 0 0 0 2,2 h 3 a 1,1 0 0 1 0,2 z"
       id="path861"
       style="fill:#ffffff;fill-opacity:1;stroke:#ffffff;stroke-opacity:1"
       inkscape:connector-curvature="0" />
    <path
       class="cls-1"
       d="m 23,11 a 5,5 0 1 1 5,-5 5,5 0 0 1 -5,5 z m 0,-8 a 3,3 0 1 0 3,3 3,3 0 0 0 -3,-3 z"
       id="path863"
       style="fill:#ffffff;fill-opacity:1;stroke:#ffffff;stroke-opacity:1"
       inkscape:connector-curvature="0" />
    <path
       class="cls-1"
       d="m 27,19.39 h -3 a 1,1 0 0 1 0,-2 h 3 a 2,2 0 0 0 2,-2 v -1.07 l -2.55,-1 a 1,1 0 0 1 -0.56,-1.3 1,1 0 0 1 1.29,-0.57 l 3.19,1.25 A 1,1 0 0 1 31,13.63 v 1.75 a 4,4 0 0 1 -4,4.01 z"
       id="path865"
       style="fill:#ffffff;fill-opacity:1;stroke:#ffffff;stroke-opacity:1"
       inkscape:connector-curvature="0" />
  </g>
  <rect
     rx="1.8588127"
     ry="1.8588127"
     y="0.62940568"
     x="16.45146"
     height="14.807491"
     width="14.807491"
     id="rect1630"
     style="fill:none;fill-opacity:1;stroke:#ffffff;stroke-width:0.49630296;stroke-miterlimit:4;stroke-dasharray:none;stroke-opacity:1" />
  <g
     transform="matrix(0.42479647,0,0,0.42479647,17.058461,1.2364049)"
     style="fill:#ffffff;fill-opacity:1;stroke:#ffffff;stroke-opacity:1"
     id="g1644"
     data-name="Layer 20">
    <path
       inkscape:connector-curvature="0"
       style="fill:#ffffff;fill-opacity:1;stroke:#ffffff;stroke-opacity:1"
       id="path1632"
       d="m 16,22 a 6,6 0 1 1 6,-6 6,6 0 0 1 -6,6 z m 0,-10 a 4,4 0 1 0 4,4 4,4 0 0 0 -4,-4 z"
       class="cls-1" />
    <path
       inkscape:connector-curvature="0"
       style="fill:#ffffff;fill-opacity:1;stroke:#ffffff;stroke-opacity:1"
       id="path1634"
       d="M 21,31 H 11 A 4,4 0 0 1 7,27 v -2.55 a 1,1 0 0 1 0.63,-0.92 l 3.64,-1.46 A 1,1 0 1 1 12,23.93 l -3,1.2 V 27 a 2,2 0 0 0 2,2 h 10 a 2,2 0 0 0 2,-2 v -1.87 l -3,-1.2 a 1.0008996,1.0008996 0 0 1 0.74,-1.86 l 3.64,1.46 a 1,1 0 0 1 0.63,0.92 V 27 A 4,4 0 0 1 21,31 Z"
       class="cls-1" />
    <path
       inkscape:connector-curvature="0"
       style="fill:#ffffff;fill-opacity:1;stroke:#ffffff;stroke-opacity:1"
       id="path1636"
       d="M 9,11 A 5,5 0 1 1 14,6 5,5 0 0 1 9,11 Z M 9,3 A 3,3 0 1 0 12,6 3,3 0 0 0 9,3 Z"
       class="cls-1" />
    <path
       inkscape:connector-curvature="0"
       style="fill:#ffffff;fill-opacity:1;stroke:#ffffff;stroke-opacity:1"
       id="path1638"
       d="M 8,19.39 H 5 a 4,4 0 0 1 -4,-4 V 13.64 A 1,1 0 0 1 1.63,12.71 L 4.82,11.46 A 1,1 0 0 1 6.11,12 1,1 0 0 1 5.55,13.3 L 3,14.32 v 1.07 a 2,2 0 0 0 2,2 h 3 a 1,1 0 0 1 0,2 z"
       class="cls-1" />
    <path
       inkscape:connector-curvature="0"
       style="fill:#ffffff;fill-opacity:1;stroke:#ffffff;stroke-opacity:1"
       id="path1640"
       d="m 23,11 a 5,5 0 1 1 5,-5 5,5 0 0 1 -5,5 z m 0,-8 a 3,3 0 1 0 3,3 3,3 0 0 0 -3,-3 z"
       class="cls-1" />
    <path
       inkscape:connector-curvature="0"
       style="fill:#ffffff;fill-opacity:1;stroke:#ffffff;stroke-opacity:1"
       id="path1642"
       d="m 27,19.39 h -3 a 1,1 0 0 1 0,-2 h 3 a 2,2 0 0 0 2,-2 v -1.07 l -2.55,-1 a 1,1 0 0 1 -0.56,-1.3 1,1 0 0 1 1.29,-0.57 l 3.19,1.25 A 1,1 0 0 1 31,13.63 v 1.75 a 4,4 0 0 1 -4,4.01 z"
       class="cls-1" />
  </g>
  <g
     data-name="Layer 20"
     id="g1660"
     style="fill:#ffffff;fill-opacity:1;stroke:#ffffff;stroke-opacity:1"
     transform="matrix(0.42479647,0,0,0.42479647,17.058461,1.2364049)">
    <path
       class="cls-1"
       d="m 16,22 a 6,6 0 1 1 6,-6 6,6 0 0 1 -6,6 z m 0,-10 a 4,4 0 1 0 4,4 4,4 0 0 0 -4,-4 z"
       id="path1648"
       style="fill:#ffffff;fill-opacity:1;stroke:#ffffff;stroke-opacity:1"
       inkscape:connector-curvature="0" />
    <path
       class="cls-1"
       d="M 21,31 H 11 A 4,4 0 0 1 7,27 v -2.55 a 1,1 0 0 1 0.63,-0.92 l 3.64,-1.46 A 1,1 0 1 1 12,23.93 l -3,1.2 V 27 a 2,2 0 0 0 2,2 h 10 a 2,2 0 0 0 2,-2 v -1.87 l -3,-1.2 a 1.0008996,1.0008996 0 0 1 0.74,-1.86 l 3.64,1.46 a 1,1 0 0 1 0.63,0.92 V 27 A 4,4 0 0 1 21,31 Z"
       id="path1650"
       style="fill:#ffffff;fill-opacity:1;stroke:#ffffff;stroke-opacity:1"
       inkscape:connector-curvature="0" />
    <path
       class="cls-1"
       d="M 9,11 A 5,5 0 1 1 14,6 5,5 0 0 1 9,11 Z M 9,3 A 3,3 0 1 0 12,6 3,3 0 0 0 9,3 Z"
       id="path1652"
       style="fill:#ffffff;fill-opacity:1;stroke:#ffffff;stroke-opacity:1"
       inkscape:connector-curvature="0" />
    <path
       class="cls-1"
       d="M 8,19.39 H 5 a 4,4 0 0 1 -4,-4 V 13.64 A 1,1 0 0 1 1.63,12.71 L 4.82,11.46 A 1,1 0 0 1 6.11,12 1,1 0 0 1 5.55,13.3 L 3,14.32 v 1.07 a 2,2 0 0 0 2,2 h 3 a 1,1 0 0 1 0,2 z"
       id="path1654"
       style="fill:#ffffff;fill-opacity:1;stroke:#ffffff;stroke-opacity:1"
       inkscape:connector-curvature="0" />
    <path
       class="cls-1"
       d="m 23,11 a 5,5 0 1 1 5,-5 5,5 0 0 1 -5,5 z m 0,-8 a 3,3 0 1 0 3,3 3,3 0 0 0 -3,-3 z"
       id="path1656"
       style="fill:#ffffff;fill-opacity:1;stroke:#ffffff;stroke-opacity:1"
       inkscape:connector-curvature="0" />
    <path
       class="cls-1"
       d="m 27,19.39 h -3 a 1,1 0 0 1 0,-2 h 3 a 2,2 0 0 0 2,-2 v -1.07 l -2.55,-1 a 1,1 0 0 1 -0.56,-1.3 1,1 0 0 1 1.29,-0.57 l 3.19,1.25 A 1,1 0 0 1 31,13.63 v 1.75 a 4,4 0 0 1 -4,4.01 z"
       id="path1658"
       style="fill:#ffffff;fill-opacity:1;stroke:#ffffff;stroke-opacity:1"
       inkscape:connector-curvature="0" />
  </g>
  <rect
     rx="1.8588127"
     ry="1.8588127"
     y="16.320433"
     x="0.66216171"
     height="14.807491"
     width="14.807491"
     id="rect1662"
     style="fill:none;fill-opacity:1;stroke:#ffffff;stroke-width:0.49630296;stroke-miterlimit:4;stroke-dasharray:none;stroke-opacity:1" />
  <g
     transform="matrix(0.42479647,0,0,0.42479647,1.2691616,16.927431)"
     style="fill:#ffffff;fill-opacity:1;stroke:#ffffff;stroke-opacity:1"
     id="g1676"
     data-name="Layer 20">
    <path
       inkscape:connector-curvature="0"
       style="fill:#ffffff;fill-opacity:1;stroke:#ffffff;stroke-opacity:1"
       id="path1664"
       d="m 16,22 a 6,6 0 1 1 6,-6 6,6 0 0 1 -6,6 z m 0,-10 a 4,4 0 1 0 4,4 4,4 0 0 0 -4,-4 z"
       class="cls-1" />
    <path
       inkscape:connector-curvature="0"
       style="fill:#ffffff;fill-opacity:1;stroke:#ffffff;stroke-opacity:1"
       id="path1666"
       d="M 21,31 H 11 A 4,4 0 0 1 7,27 v -2.55 a 1,1 0 0 1 0.63,-0.92 l 3.64,-1.46 A 1,1 0 1 1 12,23.93 l -3,1.2 V 27 a 2,2 0 0 0 2,2 h 10 a 2,2 0 0 0 2,-2 v -1.87 l -3,-1.2 a 1.0008996,1.0008996 0 0 1 0.74,-1.86 l 3.64,1.46 a 1,1 0 0 1 0.63,0.92 V 27 A 4,4 0 0 1 21,31 Z"
       class="cls-1" />
    <path
       inkscape:connector-curvature="0"
       style="fill:#ffffff;fill-opacity:1;stroke:#ffffff;stroke-opacity:1"
       id="path1668"
       d="M 9,11 A 5,5 0 1 1 14,6 5,5 0 0 1 9,11 Z M 9,3 A 3,3 0 1 0 12,6 3,3 0 0 0 9,3 Z"
       class="cls-1" />
    <path
       inkscape:connector-curvature="0"
       style="fill:#ffffff;fill-opacity:1;stroke:#ffffff;stroke-opacity:1"
       id="path1670"
       d="M 8,19.39 H 5 a 4,4 0 0 1 -4,-4 V 13.64 A 1,1 0 0 1 1.63,12.71 L 4.82,11.46 A 1,1 0 0 1 6.11,12 1,1 0 0 1 5.55,13.3 L 3,14.32 v 1.07 a 2,2 0 0 0 2,2 h 3 a 1,1 0 0 1 0,2 z"
       class="cls-1" />
    <path
       inkscape:connector-curvature="0"
       style="fill:#ffffff;fill-opacity:1;stroke:#ffffff;stroke-opacity:1"
       id="path1672"
       d="m 23,11 a 5,5 0 1 1 5,-5 5,5 0 0 1 -5,5 z m 0,-8 a 3,3 0 1 0 3,3 3,3 0 0 0 -3,-3 z"
       class="cls-1" />
    <path
       inkscape:connector-curvature="0"
       style="fill:#ffffff;fill-opacity:1;stroke:#ffffff;stroke-opacity:1"
       id="path1674"
       d="m 27,19.39 h -3 a 1,1 0 0 1 0,-2 h 3 a 2,2 0 0 0 2,-2 v -1.07 l -2.55,-1 a 1,1 0 0 1 -0.56,-1.3 1,1 0 0 1 1.29,-0.57 l 3.19,1.25 A 1,1 0 0 1 31,13.63 v 1.75 a 4,4 0 0 1 -4,4.01 z"
       class="cls-1" />
  </g>
  <rect
     style="fill:none;fill-opacity:1;stroke:#ffffff;stroke-width:0.49630296;stroke-miterlimit:4;stroke-dasharray:none;stroke-opacity:1"
     id="rect1678"
     width="14.807491"
     height="14.807491"
     x="16.484217"
     y="16.320433"
     ry="1.8588127"
     rx="1.8588127" />
  <g
     data-name="Layer 20"
     id="g1692"
     style="fill:#ffffff;fill-opacity:1;stroke:#ffffff;stroke-opacity:1"
     transform="matrix(0.42479647,0,0,0.42479647,17.091219,16.927431)">
    <path
       class="cls-1"
       d="m 16,22 a 6,6 0 1 1 6,-6 6,6 0 0 1 -6,6 z m 0,-10 a 4,4 0 1 0 4,4 4,4 0 0 0 -4,-4 z"
       id="path1680"
       style="fill:#ffffff;fill-opacity:1;stroke:#ffffff;stroke-opacity:1"
       inkscape:connector-curvature="0" />
    <path
       class="cls-1"
       d="M 21,31 H 11 A 4,4 0 0 1 7,27 v -2.55 a 1,1 0 0 1 0.63,-0.92 l 3.64,-1.46 A 1,1 0 1 1 12,23.93 l -3,1.2 V 27 a 2,2 0 0 0 2,2 h 10 a 2,2 0 0 0 2,-2 v -1.87 l -3,-1.2 a 1.0008996,1.0008996 0 0 1 0.74,-1.86 l 3.64,1.46 a 1,1 0 0 1 0.63,0.92 V 27 A 4,4 0 0 1 21,31 Z"
       id="path1682"
       style="fill:#ffffff;fill-opacity:1;stroke:#ffffff;stroke-opacity:1"
       inkscape:connector-curvature="0" />
    <path
       class="cls-1"
       d="M 9,11 A 5,5 0 1 1 14,6 5,5 0 0 1 9,11 Z M 9,3 A 3,3 0 1 0 12,6 3,3 0 0 0 9,3 Z"
       id="path1684"
       style="fill:#ffffff;fill-opacity:1;stroke:#ffffff;stroke-opacity:1"
       inkscape:connector-curvature="0" />
    <path
       class="cls-1"
       d="M 8,19.39 H 5 a 4,4 0 0 1 -4,-4 V 13.64 A 1,1 0 0 1 1.63,12.71 L 4.82,11.46 A 1,1 0 0 1 6.11,12 1,1 0 0 1 5.55,13.3 L 3,14.32 v 1.07 a 2,2 0 0 0 2,2 h 3 a 1,1 0 0 1 0,2 z"
       id="path1686"
       style="fill:#ffffff;fill-opacity:1;stroke:#ffffff;stroke-opacity:1"
       inkscape:connector-curvature="0" />
    <path
       class="cls-1"
       d="m 23,11 a 5,5 0 1 1 5,-5 5,5 0 0 1 -5,5 z m 0,-8 a 3,3 0 1 0 3,3 3,3 0 0 0 -3,-3 z"
       id="path1688"
       style="fill:#ffffff;fill-opacity:1;stroke:#ffffff;stroke-opacity:1"
       inkscape:connector-curvature="0" />
    <path
       class="cls-1"
       d="m 27,19.39 h -3 a 1,1 0 0 1 0,-2 h 3 a 2,2 0 0 0 2,-2 v -1.07 l -2.55,-1 a 1,1 0 0 1 -0.56,-1.3 1,1 0 0 1 1.29,-0.57 l 3.19,1.25 A 1,1 0 0 1 31,13.63 v 1.75 a 4,4 0 0 1 -4,4.01 z"
       id="path1690"
       style="fill:#ffffff;fill-opacity:1;stroke:#ffffff;stroke-opacity:1"
       inkscape:connector-curvature="0" />
  </g>
  <g
     transform="matrix(0.42479647,0,0,0.42479647,17.091219,16.927431)"
     style="fill:#ffffff;fill-opacity:1;stroke:#ffffff;stroke-opacity:1"
     id="g1708"
     data-name="Layer 20">
    <path
       inkscape:connector-curvature="0"
       style="fill:#ffffff;fill-opacity:1;stroke:#ffffff;stroke-opacity:1"
       id="path1696"
       d="m 16,22 a 6,6 0 1 1 6,-6 6,6 0 0 1 -6,6 z m 0,-10 a 4,4 0 1 0 4,4 4,4 0 0 0 -4,-4 z"
       class="cls-1" />
    <path
       inkscape:connector-curvature="0"
       style="fill:#ffffff;fill-opacity:1;stroke:#ffffff;stroke-opacity:1"
       id="path1698"
       d="M 21,31 H 11 A 4,4 0 0 1 7,27 v -2.55 a 1,1 0 0 1 0.63,-0.92 l 3.64,-1.46 A 1,1 0 1 1 12,23.93 l -3,1.2 V 27 a 2,2 0 0 0 2,2 h 10 a 2,2 0 0 0 2,-2 v -1.87 l -3,-1.2 a 1.0008996,1.0008996 0 0 1 0.74,-1.86 l 3.64,1.46 a 1,1 0 0 1 0.63,0.92 V 27 A 4,4 0 0 1 21,31 Z"
       class="cls-1" />
    <path
       inkscape:connector-curvature="0"
       style="fill:#ffffff;fill-opacity:1;stroke:#ffffff;stroke-opacity:1"
       id="path1700"
       d="M 9,11 A 5,5 0 1 1 14,6 5,5 0 0 1 9,11 Z M 9,3 A 3,3 0 1 0 12,6 3,3 0 0 0 9,3 Z"
       class="cls-1" />
    <path
       inkscape:connector-curvature="0"
       style="fill:#ffffff;fill-opacity:1;stroke:#ffffff;stroke-opacity:1"
       id="path1702"
       d="M 8,19.39 H 5 a 4,4 0 0 1 -4,-4 V 13.64 A 1,1 0 0 1 1.63,12.71 L 4.82,11.46 A 1,1 0 0 1 6.11,12 1,1 0 0 1 5.55,13.3 L 3,14.32 v 1.07 a 2,2 0 0 0 2,2 h 3 a 1,1 0 0 1 0,2 z"
       class="cls-1" />
    <path
       inkscape:connector-curvature="0"
       style="fill:#ffffff;fill-opacity:1;stroke:#ffffff;stroke-opacity:1"
       id="path1704"
       d="m 23,11 a 5,5 0 1 1 5,-5 5,5 0 0 1 -5,5 z m 0,-8 a 3,3 0 1 0 3,3 3,3 0 0 0 -3,-3 z"
       class="cls-1" />
    <path
       inkscape:connector-curvature="0"
       style="fill:#ffffff;fill-opacity:1;stroke:#ffffff;stroke-opacity:1"
       id="path1706"
       d="m 27,19.39 h -3 a 1,1 0 0 1 0,-2 h 3 a 2,2 0 0 0 2,-2 v -1.07 l -2.55,-1 a 1,1 0 0 1 -0.56,-1.3 1,1 0 0 1 1.29,-0.57 l 3.19,1.25 A 1,1 0 0 1 31,13.63 v 1.75 a 4,4 0 0 1 -4,4.01 z"
       class="cls-1" />
  </g>
</svg>
