<?xml version="1.0" encoding="UTF-8" standalone="no"?>
<svg
   xmlns:dc="http://purl.org/dc/elements/1.1/"
   xmlns:cc="http://creativecommons.org/ns#"
   xmlns:rdf="http://www.w3.org/1999/02/22-rdf-syntax-ns#"
   xmlns:svg="http://www.w3.org/2000/svg"
   xmlns="http://www.w3.org/2000/svg"
   xmlns:sodipodi="http://sodipodi.sourceforge.net/DTD/sodipodi-0.dtd"
   xmlns:inkscape="http://www.inkscape.org/namespaces/inkscape"
   viewBox="0 0 32 32"
   version="1.1"
   id="svg1746"
   sodipodi:docname="padlock.svg"
   inkscape:version="0.92.3 (2405546, 2018-03-11)">
  <metadata
     id="metadata1750">
    <rdf:RDF>
      <cc:Work
         rdf:about="">
        <dc:format>image/svg+xml</dc:format>
        <dc:type
           rdf:resource="http://purl.org/dc/dcmitype/StillImage" />
      </cc:Work>
    </rdf:RDF>
  </metadata>
  <sodipodi:namedview
     pagecolor="#ffffff"
     bordercolor="#666666"
     borderopacity="1"
     objecttolerance="10"
     gridtolerance="10"
     guidetolerance="10"
     inkscape:pageopacity="0"
     inkscape:pageshadow="2"
     inkscape:window-width="3840"
     inkscape:window-height="2097"
     id="namedview1748"
     showgrid="false"
     inkscape:zoom="7.375"
     inkscape:cx="16"
     inkscape:cy="16"
     inkscape:window-x="2953"
     inkscape:window-y="-8"
     inkscape:window-maximized="1"
     inkscape:current-layer="svg1746" />
  <defs
     id="defs1733">
    <style
       id="style1731">.cls-1{fill:#101820;}</style>
  </defs>
  <title
     id="title1735" />
  <g
     data-name="Layer 13"
     id="Layer_13"
     style="fill:#ffffff;fill-opacity:1">
    <path
       class="cls-1"
       d="M25,31H7a3,3,0,0,1-3-3V17a3,3,0,0,1,3-3H25a3,3,0,0,1,3,3V28A3,3,0,0,1,25,31ZM7,16a1,1,0,0,0-1,1V28a1,1,0,0,0,1,1H25a1,1,0,0,0,1-1V17a1,1,0,0,0-1-1Z"
       id="path1737"
       style="fill:#ffffff;fill-opacity:1" />
    <path
       class="cls-1"
       d="M24,16H8a1,1,0,0,1-1-1V9a8,8,0,0,1,8-8h2a8,8,0,0,1,8,8v6A1,1,0,0,1,24,16ZM9,14H23V9a6,6,0,0,0-6-6H15A6,6,0,0,0,9,9Z"
       id="path1739"
       style="fill:#ffffff;fill-opacity:1" />
    <path
       class="cls-1"
       d="M16,23a2,2,0,1,1,2-2A2,2,0,0,1,16,23Zm0-2Z"
       id="path1741"
       style="fill:#ffffff;fill-opacity:1" />
    <rect
       class="cls-1"
       height="4"
       width="2"
       x="15"
       y="22"
       id="rect1743"
       style="fill:#ffffff;fill-opacity:1" />
  </g>
</svg>
