<?xml version="1.0" encoding="UTF-8" standalone="no"?>
<svg
   xmlns:dc="http://purl.org/dc/elements/1.1/"
   xmlns:cc="http://creativecommons.org/ns#"
   xmlns:rdf="http://www.w3.org/1999/02/22-rdf-syntax-ns#"
   xmlns:svg="http://www.w3.org/2000/svg"
   xmlns="http://www.w3.org/2000/svg"
   xmlns:sodipodi="http://sodipodi.sourceforge.net/DTD/sodipodi-0.dtd"
   xmlns:inkscape="http://www.inkscape.org/namespaces/inkscape"
   viewBox="0 0 32 32"
   version="1.1"
   id="svg868"
   sodipodi:docname="people.svg"
   inkscape:version="0.92.3 (2405546, 2018-03-11)">
  <metadata
     id="metadata872">
    <rdf:RDF>
      <cc:Work
         rdf:about="">
        <dc:format>image/svg+xml</dc:format>
        <dc:type
           rdf:resource="http://purl.org/dc/dcmitype/StillImage" />
      </cc:Work>
    </rdf:RDF>
  </metadata>
  <sodipodi:namedview
     pagecolor="#ffffff"
     bordercolor="#666666"
     borderopacity="1"
     objecttolerance="10"
     gridtolerance="10"
     guidetolerance="10"
     inkscape:pageopacity="0"
     inkscape:pageshadow="2"
     inkscape:window-width="3840"
     inkscape:window-height="2097"
     id="namedview870"
     showgrid="false"
     inkscape:zoom="7.375"
     inkscape:cx="16"
     inkscape:cy="16"
     inkscape:window-x="2953"
     inkscape:window-y="-8"
     inkscape:window-maximized="1"
     inkscape:current-layer="svg868" />
  <defs
     id="defs851">
    <style
       id="style849">.cls-1{fill:#101820;}</style>
  </defs>
  <title
     id="title853" />
  <g
     data-name="Layer 20"
     id="Layer_20"
     style="fill:#ffffff;fill-opacity:1">
    <path
       class="cls-1"
       d="M16,22a6,6,0,1,1,6-6A6,6,0,0,1,16,22Zm0-10a4,4,0,1,0,4,4A4,4,0,0,0,16,12Z"
       id="path855"
       style="fill:#ffffff;fill-opacity:1" />
    <path
       class="cls-1"
       d="M21,31H11a4,4,0,0,1-4-4V24.45a1,1,0,0,1,.63-.92l3.64-1.46A1,1,0,1,1,12,23.93l-3,1.2V27a2,2,0,0,0,2,2H21a2,2,0,0,0,2-2V25.13l-3-1.2a1,1,0,0,1,.74-1.86l3.64,1.46a1,1,0,0,1,.63.92V27A4,4,0,0,1,21,31Z"
       id="path857"
       style="fill:#ffffff;fill-opacity:1" />
    <path
       class="cls-1"
       d="M9,11a5,5,0,1,1,5-5A5,5,0,0,1,9,11ZM9,3a3,3,0,1,0,3,3A3,3,0,0,0,9,3Z"
       id="path859"
       style="fill:#ffffff;fill-opacity:1" />
    <path
       class="cls-1"
       d="M8,19.39H5a4,4,0,0,1-4-4V13.64a1,1,0,0,1,.63-.93l3.19-1.25A1,1,0,0,1,6.11,12a1,1,0,0,1-.56,1.3L3,14.32v1.07a2,2,0,0,0,2,2H8a1,1,0,0,1,0,2Z"
       id="path861"
       style="fill:#ffffff;fill-opacity:1" />
    <path
       class="cls-1"
       d="M23,11a5,5,0,1,1,5-5A5,5,0,0,1,23,11Zm0-8a3,3,0,1,0,3,3A3,3,0,0,0,23,3Z"
       id="path863"
       style="fill:#ffffff;fill-opacity:1" />
    <path
       class="cls-1"
       d="M27,19.39H24a1,1,0,0,1,0-2h3a2,2,0,0,0,2-2V14.32l-2.55-1a1,1,0,0,1-.56-1.3,1,1,0,0,1,1.29-.57l3.19,1.25a1,1,0,0,1,.63.93v1.75A4,4,0,0,1,27,19.39Z"
       id="path865"
       style="fill:#ffffff;fill-opacity:1" />
  </g>
</svg>
