<?xml version="1.0" encoding="UTF-8" standalone="no"?>
<svg
   xmlns:dc="http://purl.org/dc/elements/1.1/"
   xmlns:cc="http://creativecommons.org/ns#"
   xmlns:rdf="http://www.w3.org/1999/02/22-rdf-syntax-ns#"
   xmlns:svg="http://www.w3.org/2000/svg"
   xmlns="http://www.w3.org/2000/svg"
   xmlns:sodipodi="http://sodipodi.sourceforge.net/DTD/sodipodi-0.dtd"
   xmlns:inkscape="http://www.inkscape.org/namespaces/inkscape"
   viewBox="0 0 32 32"
   version="1.1"
   id="svg13"
   sodipodi:docname="person.svg"
   inkscape:version="0.92.3 (2405546, 2018-03-11)">
  <metadata
     id="metadata17">
    <rdf:RDF>
      <cc:Work
         rdf:about="">
        <dc:format>image/svg+xml</dc:format>
        <dc:type
           rdf:resource="http://purl.org/dc/dcmitype/StillImage" />
      </cc:Work>
    </rdf:RDF>
  </metadata>
  <sodipodi:namedview
     pagecolor="#ffffff"
     bordercolor="#666666"
     borderopacity="1"
     objecttolerance="10"
     gridtolerance="10"
     guidetolerance="10"
     inkscape:pageopacity="0"
     inkscape:pageshadow="2"
     inkscape:window-width="3840"
     inkscape:window-height="2097"
     id="namedview15"
     showgrid="false"
     inkscape:zoom="7.375"
     inkscape:cx="16"
     inkscape:cy="16"
     inkscape:window-x="2953"
     inkscape:window-y="-8"
     inkscape:window-maximized="1"
     inkscape:current-layer="svg13" />
  <defs
     id="defs4">
    <style
       id="style2">.cls-1{fill:#101820;}</style>
  </defs>
  <title
     id="title6" />
  <g
     data-name="Layer 19"
     id="Layer_19"
     style="fill:#ffffff;fill-opacity:1;stroke:none">
    <path
       class="cls-1"
       d="M16,17a8,8,0,1,1,8-8A8,8,0,0,1,16,17ZM16,3a6,6,0,1,0,6,6A6,6,0,0,0,16,3Z"
       id="path8"
       style="fill:#ffffff;fill-opacity:1;stroke:none" />
    <path
       class="cls-1"
       d="M23,31H9a5,5,0,0,1-5-5V22a1,1,0,0,1,.49-.86l5-3a1,1,0,0,1,1,1.72L6,22.57V26a3,3,0,0,0,3,3H23a3,3,0,0,0,3-3V22.57l-4.51-2.71a1,1,0,1,1,1-1.72l5,3A1,1,0,0,1,28,22v4A5,5,0,0,1,23,31Z"
       id="path10"
       style="fill:#ffffff;fill-opacity:1;stroke:none" />
  </g>
</svg>
